<svg xmlns="http://www.w3.org/2000/svg" xmlns:xlink="http://www.w3.org/1999/xlink" width="500" zoomAndPan="magnify" viewBox="0 0 375 374.999991" height="500" preserveAspectRatio="xMidYMid meet" version="1.0"><metadata><ContainsAiGeneratedContent>Yes</ContainsAiGeneratedContent></metadata><defs><filter x="0%" y="0%" width="100%" height="100%" id="825ede61e2"><feColorMatrix values="0 0 0 0 1 0 0 0 0 1 0 0 0 0 1 0 0 0 1 0" color-interpolation-filters="sRGB"></feColorMatrix></filter><filter x="0%" y="0%" width="100%" height="100%" id="4e3776a9ac"><feColorMatrix values="0 0 0 0 1 0 0 0 0 1 0 0 0 0 1 0.2126 0.7152 0.0722 0 0" color-interpolation-filters="sRGB"></feColorMatrix></filter><g></g><clipPath id="545657080f"><path d="M 93 37.5 L 282.542969 37.5 L 282.542969 191 L 93 191 Z M 93 37.5 " clip-rule="nonzero"></path></clipPath><image x="0" y="0" width="894" id="e2b01d6fb6" height="724" preserveAspectRatio="xMidYMid meet"></image><mask id="4f9b2ae654"><g filter="url(#825ede61e2)"><g filter="url(#4e3776a9ac)" transform="matrix(0.212248, 0, 0, 0.212362, 92.794386, 37.499998)"><image x="0" y="0" width="894" height="724" preserveAspectRatio="xMidYMid meet"></image></g></g></mask><image x="0" y="0" width="894" id="c4d53008f2" height="724" preserveAspectRatio="xMidYMid meet"></image></defs><rect x="-37.5" width="450" fill="#ffffff" y="-37.499999" height="449.999989" fill-opacity="1"></rect><rect x="-37.5" width="450" fill="#ffffff" y="-37.499999" height="449.999989" fill-opacity="1"></rect><g fill="#02572e" fill-opacity="1"><g transform="translate(27.094268, 252.962204)"><g><path d="M 30.6875 -53.75 C 36.289062 -53.75 41.546875 -52.3125 46.453125 -49.4375 L 39.375 -38.890625 C 36.914062 -41.203125 34.09375 -42.359375 30.90625 -42.359375 C 29.238281 -42.359375 27.71875 -41.882812 26.34375 -40.9375 C 24.976562 -39.988281 24.296875 -38.816406 24.296875 -37.421875 C 24.296875 -36.410156 24.78125 -35.519531 25.75 -34.75 C 26.726562 -33.988281 28.515625 -33.238281 31.109375 -32.5 C 34.628906 -31.4375 37.175781 -30.40625 38.75 -29.40625 C 40.320312 -28.40625 41.546875 -27.175781 42.421875 -25.71875 C 43.304688 -24.269531 43.75 -22.457031 43.75 -20.28125 C 43.75 -17.125 42.9375 -13.785156 41.3125 -10.265625 C 39.695312 -6.753906 37.046875 -3.957031 33.359375 -1.875 C 29.679688 0.207031 25.320312 1.296875 20.28125 1.390625 C 13.789062 1.390625 7.957031 -0.597656 2.78125 -4.578125 L 10.34375 -15.546875 C 13.957031 -11.941406 17.6875 -10.140625 21.53125 -10.140625 C 23.65625 -10.140625 25.445312 -10.691406 26.90625 -11.796875 C 28.363281 -12.910156 29.09375 -14.328125 29.09375 -16.046875 C 29.09375 -18.265625 26.867188 -19.972656 22.421875 -21.171875 C 17.054688 -22.660156 13.585938 -24.25 12.015625 -25.9375 C 10.441406 -27.625 9.65625 -29.878906 9.65625 -32.703125 C 9.65625 -38.628906 11.675781 -43.617188 15.71875 -47.671875 C 19.769531 -51.722656 24.757812 -53.75 30.6875 -53.75 Z M 30.6875 -53.75 "></path></g></g></g><g fill="#02572e" fill-opacity="1"><g transform="translate(62.438839, 252.962204)"><g><path d="M 42.5 -52.359375 L 40.6875 -40.828125 L 24.515625 -40.828125 L 23.125 -32.078125 L 38.46875 -32.078125 L 36.65625 -20.546875 L 21.3125 -20.546875 L 19.859375 -11.53125 L 36.03125 -11.53125 L 34.234375 0 L 4.4375 0 L 12.703125 -52.359375 Z M 42.5 -52.359375 "></path></g></g></g><g fill="#02572e" fill-opacity="1"><g transform="translate(93.269764, 252.962204)"><g><path d="M 42.5 -52.359375 L 40.6875 -40.828125 L 24.515625 -40.828125 L 23.125 -32.078125 L 38.46875 -32.078125 L 36.65625 -20.546875 L 21.3125 -20.546875 L 19.859375 -11.53125 L 36.03125 -11.53125 L 34.234375 0 L 4.4375 0 L 12.703125 -52.359375 Z M 42.5 -52.359375 "></path></g></g></g><g fill="#02572e" fill-opacity="1"><g transform="translate(124.100686, 252.962204)"><g><path d="M 32.078125 -52.359375 C 36.429688 -52.359375 40.332031 -51.394531 43.78125 -49.46875 C 47.226562 -47.550781 49.9375 -44.898438 51.90625 -41.515625 C 53.875 -38.140625 54.859375 -34.53125 54.859375 -30.6875 C 54.859375 -25.414062 53.429688 -20.40625 50.578125 -15.65625 C 47.734375 -10.914062 43.878906 -7.117188 39.015625 -4.265625 C 34.160156 -1.421875 29.09375 0 23.8125 0 L 4.4375 0 L 12.703125 -52.359375 Z M 19.859375 -11.53125 L 22.5 -11.53125 C 28.007812 -11.53125 32.394531 -13.160156 35.65625 -16.421875 C 38.914062 -19.679688 40.546875 -23.90625 40.546875 -29.09375 C 40.546875 -32.613281 39.445312 -35.445312 37.25 -37.59375 C 35.050781 -39.75 31.773438 -40.828125 27.421875 -40.828125 L 24.515625 -40.828125 Z M 19.859375 -11.53125 "></path></g></g></g><g fill="#02572e" fill-opacity="1"><g transform="translate(168.958649, 252.962204)"><g><path d="M 26.3125 -52.359375 L 18.046875 0 L 4.4375 0 L 12.703125 -52.359375 Z M 26.3125 -52.359375 "></path></g></g></g><g fill="#02572e" fill-opacity="1"><g transform="translate(184.096, 252.962204)"><g><path d="M 26.3125 -52.359375 L 46.171875 -20.34375 L 46.3125 -20.34375 L 51.390625 -52.359375 L 65 -52.359375 L 56.734375 0 L 43.125 0 L 23.265625 -32.078125 L 23.125 -32.078125 L 18.046875 0 L 4.4375 0 L 12.703125 -52.359375 Z M 26.3125 -52.359375 "></path></g></g></g><g fill="#02572e" fill-opacity="1"><g transform="translate(237.911801, 252.962204)"><g><path d="M 26.3125 -52.359375 L 23.125 -32.15625 L 42.78125 -32.15625 L 45.96875 -52.359375 L 59.578125 -52.359375 L 51.3125 0 L 37.703125 0 L 41.109375 -21.453125 L 21.453125 -21.453125 L 18.046875 0 L 4.4375 0 L 12.703125 -52.359375 Z M 26.3125 -52.359375 "></path></g></g></g><g fill="#02572e" fill-opacity="1"><g transform="translate(286.311243, 252.962204)"><g><path d="M 64.375 -31.25 C 64.375 -26.195312 62.914062 -20.960938 60 -15.546875 C 57.082031 -10.140625 52.960938 -5.90625 47.640625 -2.84375 C 42.316406 0.207031 36.597656 1.734375 30.484375 1.734375 C 23.117188 1.734375 17.144531 -0.425781 12.5625 -4.75 C 7.976562 -9.082031 5.6875 -14.789062 5.6875 -21.875 C 5.6875 -27.707031 7.222656 -33.085938 10.296875 -38.015625 C 13.378906 -42.941406 17.570312 -46.851562 22.875 -49.75 C 28.175781 -52.644531 33.648438 -54.09375 39.296875 -54.09375 C 43.785156 -54.09375 47.984375 -53.117188 51.890625 -51.171875 C 55.804688 -49.234375 58.863281 -46.535156 61.0625 -43.078125 C 63.269531 -39.628906 64.375 -35.6875 64.375 -31.25 Z M 32.5625 -11.453125 C 35.707031 -11.453125 38.609375 -12.320312 41.265625 -14.0625 C 43.929688 -15.800781 46.050781 -18.046875 47.625 -20.796875 C 49.207031 -23.546875 50 -26.265625 50 -28.953125 C 50 -32.285156 48.734375 -35.109375 46.203125 -37.421875 C 43.679688 -39.742188 40.664062 -40.90625 37.15625 -40.90625 C 34.414062 -40.90625 31.703125 -40.160156 29.015625 -38.671875 C 26.335938 -37.191406 24.175781 -35.203125 22.53125 -32.703125 C 20.882812 -30.203125 20.0625 -27.425781 20.0625 -24.375 C 20.0625 -20.625 21.226562 -17.53125 23.5625 -15.09375 C 25.90625 -12.664062 28.90625 -11.453125 32.5625 -11.453125 Z M 32.5625 -11.453125 "></path></g></g></g><g clip-path="url(#545657080f)"><g mask="url(#4f9b2ae654)"><g transform="matrix(0.212248, 0, 0, 0.212362, 92.794386, 37.499998)"><image x="0" y="0" width="894" height="724" preserveAspectRatio="xMidYMid meet"></image></g></g></g></svg>