<svg xmlns="http://www.w3.org/2000/svg" xmlns:xlink="http://www.w3.org/1999/xlink" width="500" zoomAndPan="magnify" viewBox="0 0 375 374.999991" height="500" preserveAspectRatio="xMidYMid meet" version="1.0"><metadata><ContainsAiGeneratedContent>Yes</ContainsAiGeneratedContent></metadata><defs><filter x="0%" y="0%" width="100%" height="100%" id="b337cba05e"><feColorMatrix values="0 0 0 0 1 0 0 0 0 1 0 0 0 0 1 0 0 0 1 0" color-interpolation-filters="sRGB"></feColorMatrix></filter><filter x="0%" y="0%" width="100%" height="100%" id="42986f15f2"><feColorMatrix values="0 0 0 0 1 0 0 0 0 1 0 0 0 0 1 0.2126 0.7152 0.0722 0 0" color-interpolation-filters="sRGB"></feColorMatrix></filter><g></g><clipPath id="d8eccb0870"><path d="M 111 37.5 L 271 37.5 L 271 168 L 111 168 Z M 111 37.5 " clip-rule="nonzero"></path></clipPath><image x="0" y="0" width="894" id="4a41857858" height="724" preserveAspectRatio="xMidYMid meet"></image><mask id="be09baed5b"><g filter="url(#b337cba05e)"><g filter="url(#42986f15f2)" transform="matrix(0.17953, 0, 0, 0.180249, 110.67612, 37.499998)"><image x="0" y="0" width="894" height="724" preserveAspectRatio="xMidYMid meet"></image></g></g></mask><image x="0" y="0" width="894" id="120a83a9b9" height="724" preserveAspectRatio="xMidYMid meet"></image></defs><rect x="-37.5" width="450" fill="#ffffff" y="-37.499999" height="449.999989" fill-opacity="1"></rect><rect x="-37.5" width="450" fill="#02572e" y="-37.499999" height="449.999989" fill-opacity="1"></rect><g clip-path="url(#d8eccb0870)"><g mask="url(#be09baed5b)"><g transform="matrix(0.17953, 0, 0, 0.180249, 110.67612, 37.499998)"><image x="0" y="0" width="894" height="724" preserveAspectRatio="xMidYMid meet"></image></g></g></g><g fill="#02562d" fill-opacity="1"><g transform="translate(42.939854, 116.492287)"><g><path d="M 5.484375 -9.609375 C 6.492188 -9.609375 7.4375 -9.351562 8.3125 -8.84375 L 7.046875 -6.953125 C 6.609375 -7.367188 6.101562 -7.578125 5.53125 -7.578125 C 5.226562 -7.578125 4.953125 -7.488281 4.703125 -7.3125 C 4.460938 -7.144531 4.34375 -6.941406 4.34375 -6.703125 C 4.34375 -6.515625 4.429688 -6.351562 4.609375 -6.21875 C 4.785156 -6.082031 5.101562 -5.945312 5.5625 -5.8125 C 6.195312 -5.625 6.65625 -5.441406 6.9375 -5.265625 C 7.21875 -5.085938 7.4375 -4.867188 7.59375 -4.609375 C 7.75 -4.347656 7.828125 -4.019531 7.828125 -3.625 C 7.828125 -3.0625 7.679688 -2.460938 7.390625 -1.828125 C 7.097656 -1.203125 6.625 -0.703125 5.96875 -0.328125 C 5.3125 0.0351562 4.53125 0.226562 3.625 0.25 C 2.46875 0.25 1.425781 -0.101562 0.5 -0.8125 L 1.84375 -2.78125 C 2.488281 -2.132812 3.15625 -1.8125 3.84375 -1.8125 C 4.226562 -1.8125 4.550781 -1.910156 4.8125 -2.109375 C 5.070312 -2.304688 5.203125 -2.5625 5.203125 -2.875 C 5.203125 -3.269531 4.804688 -3.570312 4.015625 -3.78125 C 3.054688 -4.050781 2.4375 -4.335938 2.15625 -4.640625 C 1.875 -4.941406 1.734375 -5.34375 1.734375 -5.84375 C 1.734375 -6.90625 2.09375 -7.796875 2.8125 -8.515625 C 3.539062 -9.242188 4.429688 -9.609375 5.484375 -9.609375 Z M 5.484375 -9.609375 "></path></g></g></g><g fill="#02562d" fill-opacity="1"><g transform="translate(49.260558, 116.492287)"><g><path d="M 7.609375 -9.359375 L 7.28125 -7.296875 L 4.390625 -7.296875 L 4.140625 -5.734375 L 6.875 -5.734375 L 6.5625 -3.671875 L 3.8125 -3.671875 L 3.546875 -2.0625 L 6.453125 -2.0625 L 6.125 0 L 0.796875 0 L 2.265625 -9.359375 Z M 7.609375 -9.359375 "></path></g></g></g><g fill="#02562d" fill-opacity="1"><g transform="translate(54.774083, 116.492287)"><g><path d="M 7.609375 -9.359375 L 7.28125 -7.296875 L 4.390625 -7.296875 L 4.140625 -5.734375 L 6.875 -5.734375 L 6.5625 -3.671875 L 3.8125 -3.671875 L 3.546875 -2.0625 L 6.453125 -2.0625 L 6.125 0 L 0.796875 0 L 2.265625 -9.359375 Z M 7.609375 -9.359375 "></path></g></g></g><g fill="#02562d" fill-opacity="1"><g transform="translate(60.287607, 116.492287)"><g><path d="M 5.734375 -9.359375 C 6.515625 -9.359375 7.210938 -9.1875 7.828125 -8.84375 C 8.441406 -8.5 8.925781 -8.023438 9.28125 -7.421875 C 9.632812 -6.816406 9.8125 -6.171875 9.8125 -5.484375 C 9.8125 -4.546875 9.554688 -3.648438 9.046875 -2.796875 C 8.535156 -1.953125 7.84375 -1.273438 6.96875 -0.765625 C 6.101562 -0.253906 5.203125 0 4.265625 0 L 0.796875 0 L 2.265625 -9.359375 Z M 3.546875 -2.0625 L 4.03125 -2.0625 C 5.007812 -2.0625 5.789062 -2.351562 6.375 -2.9375 C 6.957031 -3.519531 7.25 -4.273438 7.25 -5.203125 C 7.25 -5.835938 7.050781 -6.34375 6.65625 -6.71875 C 6.269531 -7.101562 5.6875 -7.296875 4.90625 -7.296875 L 4.390625 -7.296875 Z M 3.546875 -2.0625 "></path></g></g></g><g fill="#02562d" fill-opacity="1"><g transform="translate(68.309601, 116.492287)"><g><path d="M 4.703125 -9.359375 L 3.234375 0 L 0.796875 0 L 2.265625 -9.359375 Z M 4.703125 -9.359375 "></path></g></g></g><g fill="#02562d" fill-opacity="1"><g transform="translate(71.016629, 116.492287)"><g><path d="M 4.703125 -9.359375 L 8.265625 -3.640625 L 8.28125 -3.640625 L 9.1875 -9.359375 L 11.625 -9.359375 L 10.15625 0 L 7.71875 0 L 4.15625 -5.734375 L 4.140625 -5.734375 L 3.234375 0 L 0.796875 0 L 2.265625 -9.359375 Z M 4.703125 -9.359375 "></path></g></g></g><g fill="#02562d" fill-opacity="1"><g transform="translate(80.640561, 116.492287)"><g><path d="M 4.703125 -9.359375 L 4.140625 -5.75 L 7.65625 -5.75 L 8.21875 -9.359375 L 10.65625 -9.359375 L 9.1875 0 L 6.75 0 L 7.359375 -3.84375 L 3.84375 -3.84375 L 3.234375 0 L 0.796875 0 L 2.265625 -9.359375 Z M 4.703125 -9.359375 "></path></g></g></g><g fill="#02562d" fill-opacity="1"><g transform="translate(89.295881, 116.492287)"><g><path d="M 11.515625 -5.59375 C 11.515625 -4.6875 11.253906 -3.75 10.734375 -2.78125 C 10.210938 -1.8125 9.472656 -1.050781 8.515625 -0.5 C 7.566406 0.0390625 6.546875 0.3125 5.453125 0.3125 C 4.140625 0.3125 3.070312 -0.0703125 2.25 -0.84375 C 1.425781 -1.625 1.015625 -2.644531 1.015625 -3.90625 C 1.015625 -4.957031 1.289062 -5.921875 1.84375 -6.796875 C 2.394531 -7.679688 3.144531 -8.378906 4.09375 -8.890625 C 5.039062 -9.410156 6.019531 -9.671875 7.03125 -9.671875 C 7.832031 -9.671875 8.582031 -9.5 9.28125 -9.15625 C 9.976562 -8.8125 10.523438 -8.328125 10.921875 -7.703125 C 11.316406 -7.085938 11.515625 -6.382812 11.515625 -5.59375 Z M 5.828125 -2.046875 C 6.390625 -2.046875 6.90625 -2.203125 7.375 -2.515625 C 7.851562 -2.828125 8.234375 -3.226562 8.515625 -3.71875 C 8.796875 -4.207031 8.9375 -4.695312 8.9375 -5.1875 C 8.9375 -5.78125 8.710938 -6.28125 8.265625 -6.6875 C 7.816406 -7.101562 7.273438 -7.3125 6.640625 -7.3125 C 6.148438 -7.3125 5.664062 -7.175781 5.1875 -6.90625 C 4.707031 -6.644531 4.320312 -6.289062 4.03125 -5.84375 C 3.738281 -5.40625 3.59375 -4.910156 3.59375 -4.359375 C 3.59375 -3.691406 3.800781 -3.140625 4.21875 -2.703125 C 4.632812 -2.265625 5.171875 -2.046875 5.828125 -2.046875 Z M 5.828125 -2.046875 "></path></g></g></g><g fill="#fcfdfd" fill-opacity="1"><g transform="translate(33.912797, 228.60932)"><g><path d="M 30.078125 -52.6875 C 35.566406 -52.6875 40.71875 -51.273438 45.53125 -48.453125 L 38.59375 -38.109375 C 36.1875 -40.378906 33.414062 -41.515625 30.28125 -41.515625 C 28.65625 -41.515625 27.171875 -41.050781 25.828125 -40.125 C 24.492188 -39.195312 23.828125 -38.050781 23.828125 -36.6875 C 23.828125 -35.6875 24.300781 -34.8125 25.25 -34.0625 C 26.207031 -33.3125 27.953125 -32.578125 30.484375 -31.859375 C 33.941406 -30.804688 36.441406 -29.789062 37.984375 -28.8125 C 39.523438 -27.84375 40.722656 -26.644531 41.578125 -25.21875 C 42.441406 -23.789062 42.875 -22.007812 42.875 -19.875 C 42.875 -16.789062 42.078125 -13.523438 40.484375 -10.078125 C 38.898438 -6.628906 36.304688 -3.882812 32.703125 -1.84375 C 29.097656 0.195312 24.820312 1.265625 19.875 1.359375 C 13.519531 1.359375 7.800781 -0.585938 2.71875 -4.484375 L 10.140625 -15.25 C 13.679688 -11.707031 17.332031 -9.9375 21.09375 -9.9375 C 23.1875 -9.9375 24.945312 -10.476562 26.375 -11.5625 C 27.800781 -12.65625 28.515625 -14.039062 28.515625 -15.71875 C 28.515625 -17.894531 26.335938 -19.578125 21.984375 -20.765625 C 16.722656 -22.210938 13.316406 -23.765625 11.765625 -25.421875 C 10.222656 -27.078125 9.453125 -29.289062 9.453125 -32.0625 C 9.453125 -37.863281 11.4375 -42.75 15.40625 -46.71875 C 19.382812 -50.695312 24.273438 -52.6875 30.078125 -52.6875 Z M 30.078125 -52.6875 "></path></g></g></g><g fill="#fcfdfd" fill-opacity="1"><g transform="translate(68.550867, 228.60932)"><g><path d="M 41.65625 -51.3125 L 39.890625 -40.015625 L 24.03125 -40.015625 L 22.671875 -31.4375 L 37.703125 -31.4375 L 35.9375 -20.140625 L 20.890625 -20.140625 L 19.46875 -11.296875 L 35.328125 -11.296875 L 33.5625 0 L 4.359375 0 L 12.453125 -51.3125 Z M 41.65625 -51.3125 "></path></g></g></g><g fill="#fcfdfd" fill-opacity="1"><g transform="translate(98.765515, 228.60932)"><g><path d="M 41.65625 -51.3125 L 39.890625 -40.015625 L 24.03125 -40.015625 L 22.671875 -31.4375 L 37.703125 -31.4375 L 35.9375 -20.140625 L 20.890625 -20.140625 L 19.46875 -11.296875 L 35.328125 -11.296875 L 33.5625 0 L 4.359375 0 L 12.453125 -51.3125 Z M 41.65625 -51.3125 "></path></g></g></g><g fill="#fcfdfd" fill-opacity="1"><g transform="translate(128.98016, 228.60932)"><g><path d="M 31.4375 -51.3125 C 35.707031 -51.3125 39.53125 -50.367188 42.90625 -48.484375 C 46.289062 -46.609375 48.945312 -44.015625 50.875 -40.703125 C 52.800781 -37.390625 53.765625 -33.847656 53.765625 -30.078125 C 53.765625 -24.910156 52.367188 -20 49.578125 -15.34375 C 46.785156 -10.695312 43.007812 -6.976562 38.25 -4.1875 C 33.488281 -1.394531 28.519531 0 23.34375 0 L 4.359375 0 L 12.453125 -51.3125 Z M 19.46875 -11.296875 L 22.046875 -11.296875 C 27.453125 -11.296875 31.753906 -12.894531 34.953125 -16.09375 C 38.148438 -19.289062 39.75 -23.429688 39.75 -28.515625 C 39.75 -31.960938 38.671875 -34.738281 36.515625 -36.84375 C 34.359375 -38.957031 31.148438 -40.015625 26.890625 -40.015625 L 24.03125 -40.015625 Z M 19.46875 -11.296875 "></path></g></g></g><g fill="#fcfdfd" fill-opacity="1"><g transform="translate(172.941459, 228.60932)"><g><path d="M 25.796875 -51.3125 L 17.703125 0 L 4.359375 0 L 12.453125 -51.3125 Z M 25.796875 -51.3125 "></path></g></g></g><g fill="#fcfdfd" fill-opacity="1"><g transform="translate(187.776231, 228.60932)"><g><path d="M 25.796875 -51.3125 L 45.265625 -19.9375 L 45.390625 -19.9375 L 50.359375 -51.3125 L 63.703125 -51.3125 L 55.609375 0 L 42.265625 0 L 22.796875 -31.4375 L 22.671875 -31.4375 L 17.703125 0 L 4.359375 0 L 12.453125 -51.3125 Z M 25.796875 -51.3125 "></path></g></g></g><g fill="#fcfdfd" fill-opacity="1"><g transform="translate(240.516311, 228.60932)"><g><path d="M 25.796875 -51.3125 L 22.671875 -31.515625 L 41.921875 -31.515625 L 45.0625 -51.3125 L 58.390625 -51.3125 L 50.296875 0 L 36.953125 0 L 40.296875 -21.03125 L 21.03125 -21.03125 L 17.703125 0 L 4.359375 0 L 12.453125 -51.3125 Z M 25.796875 -51.3125 "></path></g></g></g><g fill="#fcfdfd" fill-opacity="1"><g transform="translate(287.948301, 228.60932)"><g><path d="M 63.09375 -30.625 C 63.09375 -25.675781 61.660156 -20.546875 58.796875 -15.234375 C 55.941406 -9.929688 51.90625 -5.78125 46.6875 -2.78125 C 41.46875 0.207031 35.863281 1.703125 29.875 1.703125 C 22.664062 1.703125 16.8125 -0.414062 12.3125 -4.65625 C 7.820312 -8.90625 5.578125 -14.5 5.578125 -21.4375 C 5.578125 -27.15625 7.085938 -32.429688 10.109375 -37.265625 C 13.128906 -42.097656 17.234375 -45.929688 22.421875 -48.765625 C 27.617188 -51.597656 32.984375 -53.015625 38.515625 -53.015625 C 42.921875 -53.015625 47.039062 -52.0625 50.875 -50.15625 C 54.707031 -48.25 57.703125 -45.601562 59.859375 -42.21875 C 62.015625 -38.84375 63.09375 -34.976562 63.09375 -30.625 Z M 31.921875 -11.234375 C 35.003906 -11.234375 37.847656 -12.082031 40.453125 -13.78125 C 43.066406 -15.476562 45.144531 -17.675781 46.6875 -20.375 C 48.226562 -23.082031 49 -25.75 49 -28.375 C 49 -31.644531 47.765625 -34.414062 45.296875 -36.6875 C 42.828125 -38.957031 39.863281 -40.09375 36.40625 -40.09375 C 33.726562 -40.09375 31.070312 -39.363281 28.4375 -37.90625 C 25.8125 -36.457031 23.691406 -34.503906 22.078125 -32.046875 C 20.472656 -29.597656 19.671875 -26.878906 19.671875 -23.890625 C 19.671875 -20.210938 20.816406 -17.179688 23.109375 -14.796875 C 25.398438 -12.421875 28.335938 -11.234375 31.921875 -11.234375 Z M 31.921875 -11.234375 "></path></g></g></g></svg>