<svg xmlns="http://www.w3.org/2000/svg" viewBox="202 73 21 13"><metadata></metadata><g clip-path="url(#4cf0f22579)"><path fill="#02562d" d="M 208.664062 76.46875 C 208.476562 76.453125 208.289062 76.582031 208.289062 76.777344 L 208.289062 83.011719 C 208.289062 83.269531 208.621094 83.414062 208.839844 83.246094 L 212.945312 80.132812 C 213.089844 80.023438 213.109375 79.828125 212.992188 79.699219 C 212.976562 79.683594 212.964844 79.667969 212.945312 79.65625 L 208.839844 76.539062 C 208.785156 76.496094 208.722656 76.476562 208.664062 76.46875 Z M 214.921875 75.046875 C 214.707031 75.046875 214.53125 75.222656 214.53125 75.441406 L 214.53125 75.878906 C 214.53125 76.09375 214.707031 76.269531 214.921875 76.269531 L 216.089844 76.269531 C 216.304688 76.269531 216.480469 76.09375 216.480469 75.878906 L 216.480469 75.441406 C 216.480469 75.222656 216.304688 75.046875 216.089844 75.046875 Z M 222.003906 74.984375 C 222.339844 74.964844 222.671875 75.226562 222.671875 75.613281 L 222.671875 84.175781 C 222.671875 84.691406 222.085938 84.984375 221.671875 84.679688 L 218.792969 82.554688 L 218.792969 77.234375 L 221.671875 75.105469 C 221.773438 75.03125 221.890625 74.992188 222.003906 74.984375 Z M 204.292969 73.816406 L 216.195312 73.816406 C 217.148438 73.816406 217.917969 74.589844 217.917969 75.539062 L 217.917969 84.25 C 217.917969 85.199219 217.148438 85.96875 216.195312 85.96875 L 204.292969 85.96875 C 203.34375 85.96875 202.574219 85.199219 202.574219 84.25 L 202.574219 75.539062 C 202.574219 74.589844 203.34375 73.816406 204.292969 73.816406 Z M 204.292969 73.816406 " fill-opacity="1" fill-rule="evenodd"></path></g></svg>