<svg xmlns="http://www.w3.org/2000/svg" xmlns:xlink="http://www.w3.org/1999/xlink" width="500" zoomAndPan="magnify" viewBox="0 0 375 374.999991" height="500" preserveAspectRatio="xMidYMid meet" version="1.0"><metadata><ContainsAiGeneratedContent>Yes</ContainsAiGeneratedContent></metadata><defs><g></g><clipPath id="4cf0f22579"><path d="M 202.574219 73.816406 L 222.671875 73.816406 L 222.671875 85.816406 L 202.574219 85.816406 Z M 202.574219 73.816406 " clip-rule="nonzero"></path></clipPath></defs><rect x="-37.5" width="450" fill="#ffffff" y="-37.499999" height="449.999989" fill-opacity="1"></rect><rect x="-37.5" width="450" fill="#02572e" y="-37.499999" height="449.999989" fill-opacity="1"></rect><g clip-path="url(#4cf0f22579)"><path fill="#02562d" d="M 208.664062 76.46875 C 208.476562 76.453125 208.289062 76.582031 208.289062 76.777344 L 208.289062 83.011719 C 208.289062 83.269531 208.621094 83.414062 208.839844 83.246094 L 212.945312 80.132812 C 213.089844 80.023438 213.109375 79.828125 212.992188 79.699219 C 212.976562 79.683594 212.964844 79.667969 212.945312 79.65625 L 208.839844 76.539062 C 208.785156 76.496094 208.722656 76.476562 208.664062 76.46875 Z M 214.921875 75.046875 C 214.707031 75.046875 214.53125 75.222656 214.53125 75.441406 L 214.53125 75.878906 C 214.53125 76.09375 214.707031 76.269531 214.921875 76.269531 L 216.089844 76.269531 C 216.304688 76.269531 216.480469 76.09375 216.480469 75.878906 L 216.480469 75.441406 C 216.480469 75.222656 216.304688 75.046875 216.089844 75.046875 Z M 222.003906 74.984375 C 222.339844 74.964844 222.671875 75.226562 222.671875 75.613281 L 222.671875 84.175781 C 222.671875 84.691406 222.085938 84.984375 221.671875 84.679688 L 218.792969 82.554688 L 218.792969 77.234375 L 221.671875 75.105469 C 221.773438 75.03125 221.890625 74.992188 222.003906 74.984375 Z M 204.292969 73.816406 L 216.195312 73.816406 C 217.148438 73.816406 217.917969 74.589844 217.917969 75.539062 L 217.917969 84.25 C 217.917969 85.199219 217.148438 85.96875 216.195312 85.96875 L 204.292969 85.96875 C 203.34375 85.96875 202.574219 85.199219 202.574219 84.25 L 202.574219 75.539062 C 202.574219 74.589844 203.34375 73.816406 204.292969 73.816406 Z M 204.292969 73.816406 " fill-opacity="1" fill-rule="evenodd"></path></g><g fill="#fcfdfd" fill-opacity="1"><g transform="translate(33.912797, 228.609291)"><g><path d="M 30.078125 -52.6875 C 35.566406 -52.6875 40.71875 -51.273438 45.53125 -48.453125 L 38.59375 -38.109375 C 36.1875 -40.378906 33.414062 -41.515625 30.28125 -41.515625 C 28.65625 -41.515625 27.171875 -41.050781 25.828125 -40.125 C 24.492188 -39.195312 23.828125 -38.050781 23.828125 -36.6875 C 23.828125 -35.6875 24.300781 -34.8125 25.25 -34.0625 C 26.207031 -33.3125 27.953125 -32.578125 30.484375 -31.859375 C 33.941406 -30.804688 36.441406 -29.789062 37.984375 -28.8125 C 39.523438 -27.84375 40.722656 -26.644531 41.578125 -25.21875 C 42.441406 -23.789062 42.875 -22.007812 42.875 -19.875 C 42.875 -16.789062 42.078125 -13.523438 40.484375 -10.078125 C 38.898438 -6.628906 36.304688 -3.882812 32.703125 -1.84375 C 29.097656 0.195312 24.820312 1.265625 19.875 1.359375 C 13.519531 1.359375 7.800781 -0.585938 2.71875 -4.484375 L 10.140625 -15.25 C 13.679688 -11.707031 17.332031 -9.9375 21.09375 -9.9375 C 23.1875 -9.9375 24.945312 -10.476562 26.375 -11.5625 C 27.800781 -12.65625 28.515625 -14.039062 28.515625 -15.71875 C 28.515625 -17.894531 26.335938 -19.578125 21.984375 -20.765625 C 16.722656 -22.210938 13.316406 -23.765625 11.765625 -25.421875 C 10.222656 -27.078125 9.453125 -29.289062 9.453125 -32.0625 C 9.453125 -37.863281 11.4375 -42.75 15.40625 -46.71875 C 19.382812 -50.695312 24.273438 -52.6875 30.078125 -52.6875 Z M 30.078125 -52.6875 "></path></g></g></g><g fill="#fcfdfd" fill-opacity="1"><g transform="translate(68.550867, 228.609291)"><g><path d="M 41.65625 -51.3125 L 39.890625 -40.015625 L 24.03125 -40.015625 L 22.671875 -31.4375 L 37.703125 -31.4375 L 35.9375 -20.140625 L 20.890625 -20.140625 L 19.46875 -11.296875 L 35.328125 -11.296875 L 33.5625 0 L 4.359375 0 L 12.453125 -51.3125 Z M 41.65625 -51.3125 "></path></g></g></g><g fill="#fcfdfd" fill-opacity="1"><g transform="translate(98.765515, 228.609291)"><g><path d="M 41.65625 -51.3125 L 39.890625 -40.015625 L 24.03125 -40.015625 L 22.671875 -31.4375 L 37.703125 -31.4375 L 35.9375 -20.140625 L 20.890625 -20.140625 L 19.46875 -11.296875 L 35.328125 -11.296875 L 33.5625 0 L 4.359375 0 L 12.453125 -51.3125 Z M 41.65625 -51.3125 "></path></g></g></g><g fill="#fcfdfd" fill-opacity="1"><g transform="translate(128.98016, 228.609291)"><g><path d="M 31.4375 -51.3125 C 35.707031 -51.3125 39.53125 -50.367188 42.90625 -48.484375 C 46.289062 -46.609375 48.945312 -44.015625 50.875 -40.703125 C 52.800781 -37.390625 53.765625 -33.847656 53.765625 -30.078125 C 53.765625 -24.910156 52.367188 -20 49.578125 -15.34375 C 46.785156 -10.695312 43.007812 -6.976562 38.25 -4.1875 C 33.488281 -1.394531 28.519531 0 23.34375 0 L 4.359375 0 L 12.453125 -51.3125 Z M 19.46875 -11.296875 L 22.046875 -11.296875 C 27.453125 -11.296875 31.753906 -12.894531 34.953125 -16.09375 C 38.148438 -19.289062 39.75 -23.429688 39.75 -28.515625 C 39.75 -31.960938 38.671875 -34.738281 36.515625 -36.84375 C 34.359375 -38.957031 31.148438 -40.015625 26.890625 -40.015625 L 24.03125 -40.015625 Z M 19.46875 -11.296875 "></path></g></g></g><g fill="#fcfdfd" fill-opacity="1"><g transform="translate(172.941459, 228.609291)"><g><path d="M 25.796875 -51.3125 L 17.703125 0 L 4.359375 0 L 12.453125 -51.3125 Z M 25.796875 -51.3125 "></path></g></g></g><g fill="#fcfdfd" fill-opacity="1"><g transform="translate(187.776231, 228.609291)"><g><path d="M 25.796875 -51.3125 L 45.265625 -19.9375 L 45.390625 -19.9375 L 50.359375 -51.3125 L 63.703125 -51.3125 L 55.609375 0 L 42.265625 0 L 22.796875 -31.4375 L 22.671875 -31.4375 L 17.703125 0 L 4.359375 0 L 12.453125 -51.3125 Z M 25.796875 -51.3125 "></path></g></g></g><g fill="#fcfdfd" fill-opacity="1"><g transform="translate(240.516311, 228.609291)"><g><path d="M 25.796875 -51.3125 L 22.671875 -31.515625 L 41.921875 -31.515625 L 45.0625 -51.3125 L 58.390625 -51.3125 L 50.296875 0 L 36.953125 0 L 40.296875 -21.03125 L 21.03125 -21.03125 L 17.703125 0 L 4.359375 0 L 12.453125 -51.3125 Z M 25.796875 -51.3125 "></path></g></g></g><g fill="#fcfdfd" fill-opacity="1"><g transform="translate(287.948301, 228.609291)"><g><path d="M 63.09375 -30.625 C 63.09375 -25.675781 61.660156 -20.546875 58.796875 -15.234375 C 55.941406 -9.929688 51.90625 -5.78125 46.6875 -2.78125 C 41.46875 0.207031 35.863281 1.703125 29.875 1.703125 C 22.664062 1.703125 16.8125 -0.414062 12.3125 -4.65625 C 7.820312 -8.90625 5.578125 -14.5 5.578125 -21.4375 C 5.578125 -27.15625 7.085938 -32.429688 10.109375 -37.265625 C 13.128906 -42.097656 17.234375 -45.929688 22.421875 -48.765625 C 27.617188 -51.597656 32.984375 -53.015625 38.515625 -53.015625 C 42.921875 -53.015625 47.039062 -52.0625 50.875 -50.15625 C 54.707031 -48.25 57.703125 -45.601562 59.859375 -42.21875 C 62.015625 -38.84375 63.09375 -34.976562 63.09375 -30.625 Z M 31.921875 -11.234375 C 35.003906 -11.234375 37.847656 -12.082031 40.453125 -13.78125 C 43.066406 -15.476562 45.144531 -17.675781 46.6875 -20.375 C 48.226562 -23.082031 49 -25.75 49 -28.375 C 49 -31.644531 47.765625 -34.414062 45.296875 -36.6875 C 42.828125 -38.957031 39.863281 -40.09375 36.40625 -40.09375 C 33.726562 -40.09375 31.070312 -39.363281 28.4375 -37.90625 C 25.8125 -36.457031 23.691406 -34.503906 22.078125 -32.046875 C 20.472656 -29.597656 19.671875 -26.878906 19.671875 -23.890625 C 19.671875 -20.210938 20.816406 -17.179688 23.109375 -14.796875 C 25.398438 -12.421875 28.335938 -11.234375 31.921875 -11.234375 Z M 31.921875 -11.234375 "></path></g></g></g></svg>