<svg xmlns="http://www.w3.org/2000/svg" xmlns:xlink="http://www.w3.org/1999/xlink" width="500" zoomAndPan="magnify" viewBox="0 0 375 374.999991" height="500" preserveAspectRatio="xMidYMid meet" version="1.0"><metadata><ContainsAiGeneratedContent>Yes</ContainsAiGeneratedContent></metadata><defs><filter x="0%" y="0%" width="100%" height="100%" id="2a30f147ab"><feColorMatrix values="0 0 0 0 1 0 0 0 0 1 0 0 0 0 1 0 0 0 1 0" color-interpolation-filters="sRGB"></feColorMatrix></filter><filter x="0%" y="0%" width="100%" height="100%" id="cef59800a8"><feColorMatrix values="0 0 0 0 1 0 0 0 0 1 0 0 0 0 1 0.2126 0.7152 0.0722 0 0" color-interpolation-filters="sRGB"></feColorMatrix></filter><g></g><clipPath id="96d2f5b705"><path d="M 70.148438 92.464844 L 304.898438 92.464844 L 304.898438 282 L 70.148438 282 Z M 70.148438 92.464844 " clip-rule="nonzero"></path></clipPath><image x="0" y="0" width="894" id="77089b9b5a" height="724" preserveAspectRatio="xMidYMid meet"></image><mask id="8a39c4bb1c"><g filter="url(#2a30f147ab)"><g filter="url(#cef59800a8)" transform="matrix(0.262584, 0, 0, 0.262086, 70.149156, 92.464213)"><image x="0" y="0" width="894" height="724" preserveAspectRatio="xMidYMid meet"></image></g></g></mask><image x="0" y="0" width="894" id="b528afc44d" height="724" preserveAspectRatio="xMidYMid meet"></image></defs><rect x="-37.5" width="450" fill="#ffffff" y="-37.499999" height="449.999989" fill-opacity="1"></rect><rect x="-37.5" width="450" fill="#02572e" y="-37.499999" height="449.999989" fill-opacity="1"></rect><g clip-path="url(#96d2f5b705)"><g mask="url(#8a39c4bb1c)"><g transform="matrix(0.262584, 0, 0, 0.262086, 70.149156, 92.464213)"><image x="0" y="0" width="894" height="724" preserveAspectRatio="xMidYMid meet"></image></g></g></g><g fill="#02562d" fill-opacity="1"><g transform="translate(42.939854, 116.492316)"><g><path d="M 5.484375 -9.609375 C 6.492188 -9.609375 7.4375 -9.351562 8.3125 -8.84375 L 7.046875 -6.953125 C 6.609375 -7.367188 6.101562 -7.578125 5.53125 -7.578125 C 5.226562 -7.578125 4.953125 -7.488281 4.703125 -7.3125 C 4.460938 -7.144531 4.34375 -6.941406 4.34375 -6.703125 C 4.34375 -6.515625 4.429688 -6.351562 4.609375 -6.21875 C 4.785156 -6.082031 5.101562 -5.945312 5.5625 -5.8125 C 6.195312 -5.625 6.65625 -5.441406 6.9375 -5.265625 C 7.21875 -5.085938 7.4375 -4.867188 7.59375 -4.609375 C 7.75 -4.347656 7.828125 -4.019531 7.828125 -3.625 C 7.828125 -3.0625 7.679688 -2.460938 7.390625 -1.828125 C 7.097656 -1.203125 6.625 -0.703125 5.96875 -0.328125 C 5.3125 0.0351562 4.53125 0.226562 3.625 0.25 C 2.46875 0.25 1.425781 -0.101562 0.5 -0.8125 L 1.84375 -2.78125 C 2.488281 -2.132812 3.15625 -1.8125 3.84375 -1.8125 C 4.226562 -1.8125 4.550781 -1.910156 4.8125 -2.109375 C 5.070312 -2.304688 5.203125 -2.5625 5.203125 -2.875 C 5.203125 -3.269531 4.804688 -3.570312 4.015625 -3.78125 C 3.054688 -4.050781 2.4375 -4.335938 2.15625 -4.640625 C 1.875 -4.941406 1.734375 -5.34375 1.734375 -5.84375 C 1.734375 -6.90625 2.09375 -7.796875 2.8125 -8.515625 C 3.539062 -9.242188 4.429688 -9.609375 5.484375 -9.609375 Z M 5.484375 -9.609375 "></path></g></g></g><g fill="#02562d" fill-opacity="1"><g transform="translate(49.260558, 116.492316)"><g><path d="M 7.609375 -9.359375 L 7.28125 -7.296875 L 4.390625 -7.296875 L 4.140625 -5.734375 L 6.875 -5.734375 L 6.5625 -3.671875 L 3.8125 -3.671875 L 3.546875 -2.0625 L 6.453125 -2.0625 L 6.125 0 L 0.796875 0 L 2.265625 -9.359375 Z M 7.609375 -9.359375 "></path></g></g></g><g fill="#02562d" fill-opacity="1"><g transform="translate(54.774083, 116.492316)"><g><path d="M 7.609375 -9.359375 L 7.28125 -7.296875 L 4.390625 -7.296875 L 4.140625 -5.734375 L 6.875 -5.734375 L 6.5625 -3.671875 L 3.8125 -3.671875 L 3.546875 -2.0625 L 6.453125 -2.0625 L 6.125 0 L 0.796875 0 L 2.265625 -9.359375 Z M 7.609375 -9.359375 "></path></g></g></g><g fill="#02562d" fill-opacity="1"><g transform="translate(60.287607, 116.492316)"><g><path d="M 5.734375 -9.359375 C 6.515625 -9.359375 7.210938 -9.1875 7.828125 -8.84375 C 8.441406 -8.5 8.925781 -8.023438 9.28125 -7.421875 C 9.632812 -6.816406 9.8125 -6.171875 9.8125 -5.484375 C 9.8125 -4.546875 9.554688 -3.648438 9.046875 -2.796875 C 8.535156 -1.953125 7.84375 -1.273438 6.96875 -0.765625 C 6.101562 -0.253906 5.203125 0 4.265625 0 L 0.796875 0 L 2.265625 -9.359375 Z M 3.546875 -2.0625 L 4.03125 -2.0625 C 5.007812 -2.0625 5.789062 -2.351562 6.375 -2.9375 C 6.957031 -3.519531 7.25 -4.273438 7.25 -5.203125 C 7.25 -5.835938 7.050781 -6.34375 6.65625 -6.71875 C 6.269531 -7.101562 5.6875 -7.296875 4.90625 -7.296875 L 4.390625 -7.296875 Z M 3.546875 -2.0625 "></path></g></g></g><g fill="#02562d" fill-opacity="1"><g transform="translate(68.309601, 116.492316)"><g><path d="M 4.703125 -9.359375 L 3.234375 0 L 0.796875 0 L 2.265625 -9.359375 Z M 4.703125 -9.359375 "></path></g></g></g><g fill="#02562d" fill-opacity="1"><g transform="translate(71.016629, 116.492316)"><g><path d="M 4.703125 -9.359375 L 8.265625 -3.640625 L 8.28125 -3.640625 L 9.1875 -9.359375 L 11.625 -9.359375 L 10.15625 0 L 7.71875 0 L 4.15625 -5.734375 L 4.140625 -5.734375 L 3.234375 0 L 0.796875 0 L 2.265625 -9.359375 Z M 4.703125 -9.359375 "></path></g></g></g><g fill="#02562d" fill-opacity="1"><g transform="translate(80.640561, 116.492316)"><g><path d="M 4.703125 -9.359375 L 4.140625 -5.75 L 7.65625 -5.75 L 8.21875 -9.359375 L 10.65625 -9.359375 L 9.1875 0 L 6.75 0 L 7.359375 -3.84375 L 3.84375 -3.84375 L 3.234375 0 L 0.796875 0 L 2.265625 -9.359375 Z M 4.703125 -9.359375 "></path></g></g></g><g fill="#02562d" fill-opacity="1"><g transform="translate(89.295881, 116.492316)"><g><path d="M 11.515625 -5.59375 C 11.515625 -4.6875 11.253906 -3.75 10.734375 -2.78125 C 10.210938 -1.8125 9.472656 -1.050781 8.515625 -0.5 C 7.566406 0.0390625 6.546875 0.3125 5.453125 0.3125 C 4.140625 0.3125 3.070312 -0.0703125 2.25 -0.84375 C 1.425781 -1.625 1.015625 -2.644531 1.015625 -3.90625 C 1.015625 -4.957031 1.289062 -5.921875 1.84375 -6.796875 C 2.394531 -7.679688 3.144531 -8.378906 4.09375 -8.890625 C 5.039062 -9.410156 6.019531 -9.671875 7.03125 -9.671875 C 7.832031 -9.671875 8.582031 -9.5 9.28125 -9.15625 C 9.976562 -8.8125 10.523438 -8.328125 10.921875 -7.703125 C 11.316406 -7.085938 11.515625 -6.382812 11.515625 -5.59375 Z M 5.828125 -2.046875 C 6.390625 -2.046875 6.90625 -2.203125 7.375 -2.515625 C 7.851562 -2.828125 8.234375 -3.226562 8.515625 -3.71875 C 8.796875 -4.207031 8.9375 -4.695312 8.9375 -5.1875 C 8.9375 -5.78125 8.710938 -6.28125 8.265625 -6.6875 C 7.816406 -7.101562 7.273438 -7.3125 6.640625 -7.3125 C 6.148438 -7.3125 5.664062 -7.175781 5.1875 -6.90625 C 4.707031 -6.644531 4.320312 -6.289062 4.03125 -5.84375 C 3.738281 -5.40625 3.59375 -4.910156 3.59375 -4.359375 C 3.59375 -3.691406 3.800781 -3.140625 4.21875 -2.703125 C 4.632812 -2.265625 5.171875 -2.046875 5.828125 -2.046875 Z M 5.828125 -2.046875 "></path></g></g></g></svg>